<svg xmlns="http://www.w3.org/2000/svg" xml:space="preserve" width="300" height="600" style="enable-background:new 0 0 300 600">
  <path d="M132.135 198.7c6.596-7.21 20.576-7.636 29.819-.939-10.039-2.812-19.953-2.705-29.819.939z" style="fill-rule:evenodd;clip-rule:evenodd;fill:none"/>
  <path d="M181.147 345.857c3.514.166 7.024.396 10.539.48 3.289.08 5.194 1.393 6.07 4.807.832 3.24-.799 4.641-2.982 6.266-9.117 6.785-18.388 13.379-24.021 23.77-3.831 7.064-6.739 14.51-9.765 21.906-1.519 3.711-3.426 6.51-7.823 6.572-5.043.072-10.154.164-12.93-5.225-3.149-6.117-6.086-12.344-9.248-18.453-6.18-11.947-16.745-19.543-27.278-27.135-1.462-1.053-3.882-1.037-3.569-3.773.298-2.609.762-5.004 3.45-6.412 4.263-2.232 8.909-2.398 13.517-2.822 3.818-.352 7.641-.699 11.471-.889 2.544-.127 2.996-1.27 2.132-3.42-3.648-9.078-5.936-18.592-8.864-27.9-.84-2.666-2.161-4.432-5.075-5.086-2.318-.521-4.49-1.67-6.751-2.473-2.923-1.037-2.889-3.404-2.895-5.901-.006-2.646 1.496-3.896 3.79-4.059 3.737-.264 3.479-2.09 2.483-4.825-3.771-10.356-9.312-20.068-11.373-31.045-2.574-13.715.016-26.004 9.648-36.581 6.47-7.105 12.762-14.401 15.412-24.022.768-2.791 3.184-4.01 5.743-4.561 10.507-2.259 20.993-1.458 31.437.548 1.64.315 3.168 1.096 3.499 2.887 1.616 8.76 7.854 14.551 13.468 20.608 12.078 13.036 14.686 28.943 13.293 45.579-.525 6.283-4.336 12.286-6.615 18.429-.89 2.4-1.7 4.83-2.525 7.253-.553 1.623-.965 3.103 1.539 3.528 4.402.747 3.142 4.653 3.72 7.346.629 2.929-1.952 4.065-4.048 4.442-7.034 1.264-9.344 6.221-10.733 12.35-1.804 7.959-3.849 15.863-5.929 23.754-.758 2.875-.125 4.291 3.043 4.193 2.72-.084 5.443-.016 8.164-.016a2.41 2.41 0 0 0 .006-.12zm-36.842-76.146c7.043 0 14.089.12 21.128-.035 6.877-.151 13.754-.487 20.619-.938 2.887-.189 6.223-.636 6.305-4.495.293-13.912-.658-27.601-9.596-39.256-4.855-6.333-11.174-11.519-14.794-18.823-.83-1.675-1.985-1.932-3.5-.946-11.069 7.203-22.342 6.596-33.718.829-1.895-.96-3.204-.953-4.222 1.237-2.8 6.027-6.896 11.237-11.505 15.883-10.859 10.948-13.229 23.93-10.551 38.544.678 3.695 2.139 5.587 5.869 6.358 11.241 2.327 22.624 1.715 33.965 1.642zm-31.796 91.863c.312.758.354 1.117.555 1.301.949.855 1.898 1.723 2.928 2.475 10.115 7.379 16.828 17.346 21.895 28.592 1.377 3.057 2.854 6.07 4.344 9.074 2.087 4.207 6 4.205 9.9 4.211 3.767.006 5.456-2.121 6.818-5.484 5.994-14.805 11.697-29.867 25.703-40-24.139 8.816-48.035 3.884-72.143-.169zm50.322-68.653c12.268.262 10.521.711 13.634-8.159.953-2.715 1.927-5.476 3.338-7.962 2.135-3.762 1.372-4.849-2.978-4.819-19.188.134-38.381 2.13-57.564.033-3.111-.34-3.21.998-2.279 3.32 1.964 4.902 4.018 9.776 5.754 14.76 1.248 3.585 3.395 4.625 7.18 4.735 11.726.339 23.323-1.07 32.915-1.908zm-32.16 18.411c3.67 10.635 7.555 20.277 9.816 30.432.572 2.566 2.398 3.498 4.646 2.932 4.939-1.246 12.054 3.648 14.691-2.729 3.569-8.625 5.104-18.096 7.464-27.219.45-1.74-.055-2.852-2.188-2.457-11.285 2.092-22.523 1.287-34.429-.959zm28.752 42.053c-.041 2.17.135 3.58 2.076 3.811 2.738.322 2.909-1.561 3.358-3.58 4.031-18.119 8.189-36.205 14.78-53.625 3.17-8.38 6.129-16.84 9.17-25.269.365-1.012 1.176-2.192-.062-3.04-1.148-.787-2.596-.622-3.564.299-1.019.967-1.949 2.173-2.502 3.455-1.77 4.109-3.482 8.253-4.975 12.47-7.217 20.399-11.119 41.735-17.56 62.356-.378 1.215-.577 2.484-.721 3.123zm-52.265-83.412c.603 1.438 1.049 2.446 1.452 3.471 6.736 17.113 14.095 33.978 19.153 51.736 2.714 9.527 6.323 18.799 9.566 28.174.464 1.342 1.013 3.131 2.813 2.678 2.195-.555.959-2.293.646-3.57-3.117-12.752-7.033-25.242-11.331-37.66-4.504-13.014-9.913-25.675-14.333-38.697-1.322-3.902-3.207-6.05-7.966-6.132zm42.036 94.119c17.762.404 30.305-3.311 42.672-7.783 1.893-.686 4.445-1.928 3.23-4.432-1.299-2.684-3.364-.322-4.795.402-12.904 6.521-26.413 9.043-40.885 7.602-14.786-1.473-29.689-1.924-43.901-6.936-1.046-.369-2.206-.953-2.783.629-.493 1.35-.382 2.555 1.216 3.105.904.311 1.822.588 2.748.83 15.378 4.009 31.059 5.874 42.498 6.583zm-5.453-63.128c7.346-.083 14.676-.359 21.957-1.326 2.151-.286 6.005 1.104 5.954-1.945-.051-3.026-4.026-2.389-6.338-2.294-12.091.497-24.114 2.402-36.271 1.69-1.232-.072-2.773-.085-2.434 1.956.261 1.565 1.302 1.959 2.781 1.941 4.785-.058 9.568-.022 14.351-.022zm25.861 3.55c-12.479 2.273-24.659 3.291-36.911.68-1.199-.256-3.162-1.51-3.659.475-.424 1.695 1.255 2.902 2.921 3.227 11.207 2.178 22.45 3.238 33.751.631 2.392-.554 4.152-1.693 3.898-5.013zm-63.679 46.045c9.107 3.023 17.5 4.434 26.079 4.871 2.007.102 2.932-.828 2.391-3.004-.846-3.402-2.014-5.936-6.438-5.059-3.256.648-6.658.551-9.994.805-3.744.283-7.526.394-12.038 2.387zm24.949-152.374c9.821 6.022 24.191 5.848 31.927-.112-10.634-2.351-20.735-2.764-31.927.112zm18.764 148.934c-1.965.43-5.266-1.217-6.729 1.086-1.398 2.197.622 4.857 1.815 7.053 1.552 2.857 4.485 1.941 6.929 2.025 4.924.168 6.01-1.113 6.067-7.203.042-4.48-3.597-2.342-5.688-2.936-.592-.167-1.272-.025-2.394-.025zm40.511 2.047c-7.408-.73-13.595-.055-19.771-.514-3.686-.273-2.781 3.719-3.06 5.891-.397 3.105 2.243 1.975 3.701 1.711 6.314-1.143 12.18-3.58 19.13-7.088zm-24.325-149.344c-12.826 7.853-24.699 6.165-36.646 1.363 9.428 9.321 30.401 8.232 36.646-1.363z" style="fill-rule:evenodd;clip-rule:evenodd"/>
  <path d="M144.305 269.711c-11.341.073-22.724.685-33.964-1.64-3.73-.771-5.191-2.664-5.869-6.358-2.678-14.614-.309-27.596 10.551-38.544 4.608-4.646 8.705-9.856 11.505-15.883 1.018-2.19 2.327-2.197 4.222-1.237 11.376 5.767 22.648 6.374 33.718-.829 1.515-.985 2.67-.729 3.5.946 3.62 7.304 9.938 12.49 14.794 18.823 8.938 11.655 9.889 25.344 9.596 39.256-.082 3.858-3.418 4.305-6.305 4.495-6.865.451-13.742.787-20.619.938-7.04.153-14.086.033-21.129.033zm40.959 82.518c24.108 4.054 48.004 8.984 72.143.168-14.006 10.133-19.709 25.195-25.703 40-1.362 3.364-3.052 5.491-6.818 5.485-3.9-.006-7.813-.005-9.9-4.212-1.49-3.004-2.967-6.017-4.344-9.073-5.066-11.246-11.779-21.214-21.895-28.593-1.029-.752-1.979-1.619-2.928-2.475-.202-.181-.243-.542-.555-1.3z" style="fill-rule:evenodd;clip-rule:evenodd;fill:none"/>
  <path d="M235.586 283.577c-9.592.838-21.189 2.248-32.916 1.907-3.785-.11-5.932-1.149-7.18-4.735-1.736-4.983-3.79-9.857-5.754-14.76-.931-2.322-.832-3.66 2.279-3.32 19.184 2.098 38.377.101 57.564-.033 4.35-.03 5.112 1.057 2.978 4.819-1.411 2.486-2.385 5.248-3.338 7.962-3.112 8.871-1.365 8.421-13.633 8.16zm-32.16 18.411c11.906 2.245 23.145 3.05 34.429.959 2.134-.396 2.639.717 2.188 2.457-2.359 9.122-3.895 18.593-7.464 27.219-2.638 6.377-9.752 1.481-14.691 2.729-2.247.566-4.073-.366-4.646-2.933-2.262-10.153-6.146-19.796-9.816-30.431zm28.752 42.052c.145-.639.343-1.908.722-3.122 6.44-20.621 10.343-41.958 17.56-62.356 1.492-4.217 3.205-8.361 4.975-12.47.553-1.281 1.483-2.488 2.502-3.455.969-.921 2.416-1.086 3.564-.299 1.238.847.428 2.027.062 3.04-3.041 8.429-6 16.889-9.17 25.269-6.591 17.421-10.749 35.507-14.78 53.626-.449 2.02-.62 3.901-3.358 3.579-1.943-.231-2.118-1.641-2.077-3.812zm-125.02-74.067c4.759.082 6.644 2.229 7.968 6.131 4.42 13.022 9.829 25.683 14.333 38.697 4.298 12.418 8.214 24.908 11.331 37.66.312 1.277 1.549 3.016-.646 3.57-1.801.453-2.35-1.336-2.813-2.678-3.243-9.375-6.853-18.646-9.566-28.174-5.059-17.758-12.417-34.623-19.153-51.736-.405-1.024-.851-2.032-1.454-3.47z" style="fill-rule:evenodd;clip-rule:evenodd;fill:none"/>
  <path d="M221.949 354.748c-11.439-.71-27.12-2.574-42.498-6.582a38.461 38.461 0 0 1-2.748-.831c-1.598-.551-1.709-1.755-1.216-3.104.577-1.582 1.737-.999 2.783-.63 14.212 5.012 29.115 5.463 43.901 6.937 14.472 1.44 27.98-1.08 40.885-7.603 1.431-.724 3.496-3.086 4.795-.402 1.215 2.504-1.338 3.747-3.23 4.432-12.367 4.472-24.91 8.187-42.672 7.783zm-5.453-63.128c-4.783 0-9.566-.037-14.35.022-1.479.018-2.521-.375-2.781-1.941-.34-2.041 1.201-2.028 2.434-1.956 12.156.712 24.18-1.193 36.271-1.69 2.312-.095 6.287-.732 6.338 2.294.051 3.049-3.803 1.659-5.954 1.945-7.282.966-14.612 1.243-21.958 1.326zm25.86 3.55c.255 3.32-1.506 4.459-3.898 5.011-11.301 2.607-22.544 1.547-33.751-.631-1.666-.323-3.345-1.53-2.921-3.226.497-1.985 2.46-.731 3.659-.476 12.252 2.612 24.433 1.595 36.911-.678z" style="fill-rule:evenodd;clip-rule:evenodd;fill:none"/>
  <path d="M178.678 341.214c4.512-1.992 8.294-2.103 12.037-2.387 3.336-.253 6.738-.156 9.994-.804 4.425-.878 5.593 1.656 6.438 5.059.541 2.176-.384 3.104-2.391 3.003-8.578-.437-16.971-1.847-26.078-4.871zm24.949-152.374c11.192-2.875 21.293-2.462 31.927-.112-7.736 5.96-22.106 6.134-31.927.112zm18.764 148.934c1.122 0 1.803-.143 2.395.025 2.092.594 5.73-1.545 5.688 2.936-.058 6.091-1.144 7.371-6.067 7.203-2.443-.083-5.377.833-6.929-2.024-1.193-2.196-3.214-4.856-1.815-7.054 1.462-2.301 4.763-.655 6.728-1.086zm40.511 2.047c-6.95 3.509-12.816 5.945-19.129 7.088-1.458.265-4.099 1.396-3.701-1.71.278-2.172-.626-6.164 3.06-5.891 6.176.459 12.362-.217 19.77.513z" style="fill-rule:evenodd;clip-rule:evenodd;fill:none"/>
  <path d="M238.577 190.478c-6.245 9.595-27.218 10.684-36.646 1.363 11.947 4.802 23.82 6.49 36.646-1.363z" style="fill-rule:evenodd;clip-rule:evenodd;fill:none"/>
</svg>