<?xml version="1.0" encoding="iso-8859-1"?>
<!-- Generator: Adobe Illustrator 16.0.0, SVG Export Plug-In . SVG Version: 6.00 Build 0)  -->
<!DOCTYPE svg PUBLIC "-//W3C//DTD SVG 1.1//EN" "http://www.w3.org/Graphics/SVG/1.1/DTD/svg11.dtd">
<svg version="1.1" id="Layer_1" xmlns="http://www.w3.org/2000/svg" xmlns:xlink="http://www.w3.org/1999/xlink" x="0px" y="0px"
	 width="300px" height="600px" viewBox="0 0 300 600" style="enable-background:new 0 0 300 600;" xml:space="preserve">
<path style="fill-rule:evenodd;clip-rule:evenodd;fill:none;" d="M132.135,198.7c6.596-7.21,20.576-7.636,29.819-0.939
	C151.915,194.949,142.001,195.056,132.135,198.7z"/>
<path style="fill-rule:evenodd;clip-rule:evenodd;" d="M200.891,258.701c0.289,10.189-2.565,18.852-8.959,26.513
	c-5.527,6.623-11.498,12.938-15.813,20.519c-2.608,4.58-2.522,4.751,2.44,5.346c2.529,0.304,5.066,0.815,7.502,1.557
	c5.684,1.728,7.692,9.449,3.768,13.861c-3.904,4.389-9.018,6.426-14.484,8.031c-2.193,0.643-6.071-0.195-5.938,3.383
	c0.147,3.98,3.815,4.013,6.925,4.219c6.065,0.402,12.121,0.994,18.191,1.281c2.896,0.137,4.46,1.338,4.811,4.178
	c0.02,0.158,0.084,0.309,0.131,0.463c2.775,9.104,1.905,11.324-6.402,16.309c-0.687,0.411-1.354,0.906-2.099,1.16
	c-17.358,5.924-24.614,20.441-30.46,36.041c-0.99,2.646-2.275,4.044-5.026,4.217c-1.112,0.07-2.214,0.344-3.317,0.535
	c-6.934,1.205-12.225-0.67-15.148-7.621c-5.977-14.201-15.593-25.208-29.082-32.808c-1.776-1.001-3.322-2.536-4.719-4.058
	c-2.203-2.4-5.355-4.553-3.615-8.608c1.938-4.511,3.986-8.81,10.141-8.488c3.828,0.2,7.686-0.042,11.526-0.19
	c3.036-0.119,6.141-0.244,8.835-1.834c2.095-1.237,4.52-3.2,4.354-5.355c-0.166-2.17-3.373-1.596-5.287-1.998
	c-5.979-1.259-11.911-2.543-16.808-6.582c-4.197-3.461-3.146-10.779,2.066-12.652c3.442-1.236,7.074-2.068,10.69-2.662
	c3.878-0.637,3.921-2.085,1.931-4.996c-4.425-6.475-8.254-13.389-13.013-19.598c-6.325-8.251-8.085-17.853-9.924-27.619
	c-1.979-10.509-0.045-20.376,4.042-29.984c2.506-5.892,5.292-11.666,7.779-17.565c1.996-4.732,3.553-9.617,3.612-14.841
	c0.032-2.781,0.71-5.55,3.923-5.591c3.221-0.042,2.52,3.308,2.889,5.203c2.537,13.032,3.73,26.299,6.986,39.215
	c1.191,4.726,2.737,9.05,6.233,12.718c3.995,4.192,5.286,9.768,6.472,15.289c0.902,4.206,7.651,7.36,11.576,5.521
	c1.43-0.67,1.555-1.992,1.695-3.217c1.05-9.107,3.531-17.55,10.348-24.229c0.925-0.907,1.432-2.574,1.537-3.935
	c1.052-13.719,3.9-27.25,4.232-41.051c0.058-2.38-0.957-6.159,3.084-6.414c3.713-0.234,5.015,2.616,5.553,5.946
	c1.498,9.26,5.523,17.692,8.807,26.368C197.074,235.779,201.192,246.909,200.891,258.701z M136.759,363.213
	c-1.04-3.311,0.229-4.9,0.97-6.554c2.031-4.525,4.303-8.95,6.147-13.547c0.653-1.631,2.915-4.212,0.007-5.309
	c-2.354-0.888-5.415-1.999-7.725,1.31c-6.99,10.02-16.826,13.27-28.587,11.16c-2.417-0.434-3.926-0.067-5.024,2.28
	c-1.244,2.661,0.344,3.941,2.162,5.052c4.644,2.835,9.426,5.448,14.039,8.332c10.988,6.869,18.929,16.047,22.22,28.938
	c2.377,9.312,2.583,9.182,12.076,8.629c2.976-0.173,4.545-1.134,5.249-4.288c1.113-4.982,2.68-9.886,4.362-14.715
	c3.618-10.378,10.408-17.811,20.733-21.98c4.297-1.735,8.336-4.107,12.619-5.88c3.119-1.291,2.758-3.058,1.909-5.695
	c-1.017-3.159-2.647-2.188-4.749-1.546c-10.982,3.358-20.755-0.604-26.35-10.695c-0.73-1.318-1.333-1.938-2.898-1.742
	c-2.877,0.361-3.784,1.525-2.938,4.51c1.375,4.854,4.065,9.182,5.192,14.178c-3.715-3.766-5.688-8.433-7.254-13.351
	c-0.621-1.95-0.308-4.967-3.803-4.319c-3.195,0.591-7.263-1.608-8.706,4.085C144.588,349.262,140.396,355.557,136.759,363.213z
	 M136.188,305.662c0.469-0.25,0.938-0.502,1.406-0.752c3.467,5.271,6.498,10.777,8.623,16.792c0.514,1.454,0.73,3.04,2.719,3.589
	c5.791,1.597,9.281-0.238,11.057-5.938c0.855-2.748,1.727-5.509,2.855-8.15c1.322-3.096,2.094-6.554,5.176-8.746
	c-0.416,2.502-1.356,4.792-2.195,7.119c-1.357,3.758-2.68,7.529-3.949,11.318c-0.397,1.188-0.943,2.639,0.754,3.273
	c1.582,0.592,2.826-0.128,3.528-1.626c0.543-1.157,1.026-2.351,1.436-3.562c3.593-10.627,9.302-19.964,16.882-28.223
	c2.316-2.524,4.281-5.371,6.938-8.744c-14.031,2.307-27.151,1.52-40.237,1.407c-13.063-0.113-26.112-0.78-39.313-3.571
	c0.215,2.372,1.513,3.634,2.371,5.09c7.481,12.675,17.195,23.944,23.535,37.335c1.147,2.424,3.302,2.786,5.235,1.92
	c2.526-1.133,0.606-3.094-0.019-4.473C140.838,314.982,138.471,310.341,136.188,305.662z M117.652,252.324
	c2.508,0.835,2.506,2.677,3.107,4.005c1.652,3.639,3.121,7.361,4.74,11.016c0.896,2.024,2.334,3.418,4.759,3.406
	c3.68-0.018,7.36,0.019,11.041-0.004c2.163-0.014,3.265-0.961,2.901-3.3c-1.161-7.456-3.535-14.267-9.599-19.304
	c-2.581-2.144-5.097-4.388-7.47-6.758c-4.961-4.953-6.965-10.86-5.889-17.922c1.13-7.418,2.999-14.749,3.02-22.311
	c0.004-1.717,0.486-3.745-2.022-5.48c-0.401,7.352-2.143,13.775-4.782,19.929c-2.207,5.145-4.728,10.156-6.923,15.305
	c-3.491,8.185-5.694,16.667-4.867,25.67c1.13,12.31,2.606,13.613,14.751,14.053c3.154,0.114,4.641-0.085,2.588-3.743
	C120.555,262.514,118.483,257.888,117.652,252.324z M186.93,252.665c1.623,0.968,0.996,2.131,0.826,3.146
	c-0.718,4.281-1.955,8.411-3.613,12.426c-0.423,1.023-1.738,2.266,0.203,3.206c4.789,2.318,13.867-2.918,14.188-8.18
	c0.627-10.25-1.407-20.049-4.803-29.664c-4.256-12.052-10.158-23.566-11.961-36.43c-0.133-0.946-0.625-1.87-2.215-1.574
	c-0.559,1.502,0.109,2.982,0.475,4.466c1.3,5.284,2.641,10.558,3.914,15.848c2.262,9.387,0.098,17.417-7.318,23.867
	c-1.688,1.468-3.179,3.164-4.771,4.742c-4.322,4.283-7.084,9.443-8.641,15.29c-3.151,11.835-3.155,11.834,9.08,11.888
	c8.727,0.039,8.67-0.019,11.511-8.226C185.02,259.956,184.771,255.974,186.93,252.665z M151.365,335.316
	c9.229,0.253,18.139-1.465,26.901-4.146c4.077-1.248,7.53-3.44,10.284-6.726c1.924-2.295,1.14-4.926-0.168-6.69
	c-1.541-2.08-2.989,0.541-4.234,1.335c-4.754,3.035-9.666,5.652-15.229,6.824c-17.728,3.736-34.977,1.728-51.684-4.868
	c-3.584-1.415-5.145-1.052-5.22,2.772c-0.083,4.223,3.743,4.983,6.444,6.054C129,334.049,140.158,334.963,151.365,335.316z
	 M160.806,281.182c8.495,0.172,16.978,0.034,25.419-0.974c3.685-0.439,7.381-1.042,9.359-4.841c0.438-0.841,0.964-1.77,0.125-2.639
	c-0.658-0.683-1.498-0.354-2.25-0.107c-6.081,2-12.383,1.521-18.594,1.396c-21.265-0.43-42.574,0.177-63.759-2.345
	c-2.721-0.324-2.622,0.924-2.029,2.766c1.007,3.127,3.962,3.026,6.327,3.522C130.384,281.1,145.617,280.901,160.806,281.182z
	 M178.071,200.655c-1.54,13.42-2.94,25.607-4.339,37.794c0.621,0.055,1.244,0.11,1.866,0.165
	C176.729,226.401,181.109,214.47,178.071,200.655z M109.576,364.373c3.78,2.638,7.67,5.134,11.309,7.954
	c3.535,2.741,6.613,6.015,9.273,9.629c2.606,3.542,4.861,7.331,7.13,11.087C133.328,378.411,122.619,370.146,109.576,364.373z"/>
<path style="fill-rule:evenodd;clip-rule:evenodd;fill:none;" d="M136.759,363.213c3.638-7.656,7.829-13.951,9.652-21.147
	c1.443-5.693,5.511-3.494,8.706-4.085c3.495-0.647,3.182,2.369,3.803,4.319c1.565,4.918,3.539,9.585,7.254,13.351
	c-1.127-4.996-3.817-9.324-5.192-14.178c-0.846-2.984,0.062-4.148,2.938-4.51c1.565-0.195,2.168,0.424,2.898,1.742
	c5.595,10.092,15.367,14.054,26.35,10.695c2.102-0.643,3.732-1.613,4.749,1.546c0.849,2.638,1.21,4.404-1.909,5.695
	c-4.283,1.772-8.322,4.145-12.619,5.88c-10.325,4.17-17.115,11.603-20.733,21.98c-1.683,4.829-3.249,9.732-4.362,14.715
	c-0.704,3.154-2.273,4.115-5.249,4.288c-9.493,0.553-9.699,0.684-12.076-8.629c-3.291-12.892-11.231-22.069-22.22-28.938
	c-4.613-2.884-9.396-5.497-14.039-8.332c-1.818-1.11-3.406-2.391-2.162-5.052c1.099-2.348,2.607-2.714,5.024-2.28
	c11.761,2.109,21.597-1.141,28.587-11.16c2.31-3.309,5.37-2.197,7.725-1.31c2.908,1.097,0.646,3.678-0.007,5.309
	c-1.845,4.597-4.116,9.021-6.147,13.547C136.988,358.312,135.719,359.902,136.759,363.213z"/>
<path style="fill-rule:evenodd;clip-rule:evenodd;fill:none;" d="M136.188,305.662c2.283,4.679,4.65,9.32,6.801,14.061
	c0.625,1.379,2.545,3.34,0.019,4.473c-1.934,0.866-4.088,0.504-5.235-1.92c-6.34-13.392-16.054-24.66-23.535-37.335
	c-0.858-1.456-2.156-2.718-2.371-5.09c13.201,2.791,26.25,3.458,39.313,3.571c13.086,0.113,26.206,0.9,40.237-1.407
	c-2.656,3.373-4.621,6.22-6.938,8.744c-7.58,8.258-13.289,17.596-16.882,28.223c-0.409,1.211-0.893,2.404-1.436,3.562
	c-0.702,1.498-1.946,2.218-3.528,1.626c-1.697-0.635-1.151-2.086-0.754-3.273c1.27-3.789,2.592-7.561,3.949-11.318
	c0.839-2.327,1.779-4.617,2.195-7.119c-3.082,2.192-3.854,5.65-5.176,8.746c-1.129,2.642-2,5.402-2.855,8.15
	c-1.775,5.699-5.266,7.534-11.057,5.938c-1.988-0.549-2.205-2.135-2.719-3.589c-2.125-6.015-5.156-11.521-8.623-16.792
	C137.125,305.16,136.656,305.412,136.188,305.662z"/>
<path style="fill-rule:evenodd;clip-rule:evenodd;fill:none;" d="M117.652,252.324c0.831,5.564,2.902,10.19,5.355,14.562
	c2.053,3.658,0.566,3.857-2.588,3.743c-12.145-0.44-13.621-1.743-14.751-14.053c-0.827-9.003,1.376-17.485,4.867-25.67
	c2.195-5.149,4.716-10.16,6.923-15.305c2.64-6.154,4.381-12.577,4.782-19.929c2.509,1.736,2.026,3.764,2.022,5.48
	c-0.021,7.562-1.89,14.893-3.02,22.311c-1.076,7.062,0.928,12.969,5.889,17.922c2.373,2.37,4.889,4.614,7.47,6.758
	c6.063,5.037,8.438,11.849,9.599,19.304c0.363,2.338-0.738,3.286-2.901,3.3c-3.681,0.023-7.361-0.013-11.041,0.004
	c-2.425,0.012-3.862-1.382-4.759-3.406c-1.619-3.655-3.088-7.376-4.74-11.016C120.158,255.001,120.16,253.159,117.652,252.324z"/>
<path style="fill-rule:evenodd;clip-rule:evenodd;fill:none;" d="M186.93,252.665c-2.158,3.309-1.91,7.291-3.126,10.804
	c-2.841,8.207-2.784,8.264-11.511,8.226c-12.235-0.053-12.231-0.052-9.08-11.888c1.557-5.847,4.318-11.007,8.641-15.29
	c1.593-1.578,3.083-3.273,4.771-4.742c7.416-6.451,9.58-14.48,7.318-23.867c-1.273-5.29-2.614-10.564-3.914-15.848
	c-0.365-1.484-1.033-2.964-0.475-4.466c1.59-0.295,2.082,0.628,2.215,1.574c1.803,12.863,7.705,24.378,11.961,36.43
	c3.396,9.615,5.43,19.415,4.803,29.664c-0.32,5.262-9.398,10.499-14.188,8.18c-1.941-0.939-0.626-2.182-0.203-3.206
	c1.658-4.016,2.896-8.146,3.613-12.426C187.926,254.796,188.553,253.632,186.93,252.665z"/>
<path style="fill-rule:evenodd;clip-rule:evenodd;fill:none;" d="M151.365,335.316c-11.207-0.354-22.365-1.268-32.904-5.444
	c-2.701-1.07-6.527-1.831-6.444-6.054c0.075-3.824,1.636-4.188,5.22-2.772c16.707,6.596,33.956,8.604,51.684,4.868
	c5.562-1.172,10.475-3.789,15.229-6.824c1.245-0.794,2.693-3.415,4.234-1.335c1.308,1.765,2.092,4.396,0.168,6.69
	c-2.754,3.285-6.207,5.478-10.284,6.726C169.504,333.852,160.594,335.569,151.365,335.316z"/>
<path style="fill-rule:evenodd;clip-rule:evenodd;fill:none;" d="M160.806,281.182c-15.188-0.281-30.422-0.082-45.401-3.222
	c-2.365-0.496-5.32-0.395-6.327-3.522c-0.593-1.842-0.691-3.089,2.029-2.766c21.185,2.522,42.494,1.916,63.759,2.345
	c6.211,0.125,12.513,0.604,18.594-1.396c0.752-0.248,1.592-0.576,2.25,0.107c0.839,0.869,0.312,1.797-0.125,2.639
	c-1.979,3.799-5.675,4.401-9.359,4.841C177.783,281.215,169.301,281.354,160.806,281.182z"/>
<path style="fill-rule:evenodd;clip-rule:evenodd;fill:none;" d="M178.071,200.655c3.038,13.815-1.343,25.746-2.473,37.959
	c-0.622-0.055-1.245-0.11-1.866-0.165C175.131,226.262,176.531,214.075,178.071,200.655z"/>
<path style="fill-rule:evenodd;clip-rule:evenodd;fill:none;" d="M109.576,364.373c13.043,5.773,23.752,14.038,27.712,28.67
	c-2.269-3.756-4.523-7.545-7.13-11.087c-2.66-3.614-5.738-6.888-9.273-9.629C117.246,369.507,113.356,367.011,109.576,364.373z"/>
</svg>
